<?xml version="1.0" encoding="UTF-8"?>
<svg version="1.1" xmlns="http://www.w3.org/2000/svg" width="500" height="500">
<path d="M0 0 C1.23941923 -0.00445784 2.47883847 -0.00891569 3.75581586 -0.01350862 C5.13356997 -0.01341932 6.51132406 -0.01322947 7.88907814 -0.01294994 C9.35098259 -0.01624956 10.81288612 -0.01997534 12.2747885 -0.02409142 C16.29768417 -0.03410884 20.32056492 -0.03782782 24.34347129 -0.04048073 C28.68045736 -0.04438468 33.01743163 -0.05396313 37.35441017 -0.0626936 C47.83269318 -0.08245795 58.31097716 -0.09252529 68.78927416 -0.10142139 C73.72561515 -0.10580532 78.66195507 -0.11117195 83.59829521 -0.11641026 C100.01225944 -0.13342436 116.42622301 -0.14791716 132.8401947 -0.155159 C137.09994826 -0.15706885 141.3597018 -0.15898919 145.61945534 -0.16094494 C147.2075421 -0.16167055 147.2075421 -0.16167055 148.82771142 -0.16241082 C165.96726084 -0.17070595 183.10674035 -0.19603332 200.24625926 -0.22852562 C217.84978807 -0.2616249 235.4532814 -0.27961045 253.05684149 -0.28280324 C262.93774602 -0.28496594 272.81854868 -0.29367919 282.69942284 -0.31926441 C291.11718589 -0.34101081 299.53482234 -0.34900257 307.9526103 -0.33929763 C312.24398617 -0.334764 316.53510102 -0.33658416 320.82644081 -0.35605907 C324.76362835 -0.37377155 328.70036604 -0.37262825 332.63755889 -0.35716178 C334.05356613 -0.35479786 335.46960519 -0.35904542 336.88556401 -0.37099043 C359.72088482 -0.55152428 379.98019605 8.80328888 396.26838112 24.45062733 C410.55380188 38.55132282 421.81016293 58.08336918 422.24998665 78.6225214 C422.26616173 81.24110041 422.27173314 83.8583162 422.26801491 86.47681141 C422.27318845 87.9378941 422.2792165 89.39897396 422.28602171 90.86004996 C422.3020961 94.8623376 422.30573718 98.86455336 422.30721664 102.86686945 C422.31092942 107.18891621 422.32603027 111.51092619 422.33948708 115.83295155 C422.36661142 125.27979527 422.37869748 134.72662197 422.38750839 144.17349815 C422.39304227 150.07942341 422.40151879 155.98534216 422.41051674 161.89126301 C422.43490008 178.26248354 422.45549681 194.63369888 422.46226692 211.00493717 C422.46292562 212.57567326 422.46292562 212.57567326 422.46359763 214.1781414 C422.46403418 215.2277289 422.46447074 216.27731639 422.46492052 217.35870957 C422.46580743 219.48537747 422.46670056 221.61204537 422.46759987 223.73871326 C422.46826416 225.32104622 422.46826416 225.32104622 422.46894187 226.9353455 C422.47682802 244.00596761 422.51170687 261.07641845 422.55831891 278.14697447 C422.60585524 295.6986837 422.6306757 313.25030723 422.63300276 330.80208182 C422.63483054 340.64628062 422.64618924 350.49025645 422.68264198 360.3343935 C422.71359251 368.72192577 422.72359852 377.1091662 422.70716578 385.49674478 C422.69940365 389.76876022 422.70095737 394.04018936 422.72928047 398.31213093 C422.92291567 429.32886582 418.3302463 452.97551958 396.17463112 476.25922108 C389.3061809 482.87525243 381.67821377 488.0073634 373.23713112 492.38422108 C372.64287331 492.70133045 372.04861549 493.01843983 371.43634987 493.34515858 C359.73889054 499.15725737 347.66368055 500.73200984 334.76911354 500.64215565 C333.29842293 500.64677796 331.82773696 500.65313971 330.35706043 500.66106462 C326.36082074 500.67759884 322.36496834 500.66958513 318.36872816 500.65711975 C314.04144082 500.64800559 309.71421642 500.6620703 305.38694191 500.67303944 C296.92761501 500.6907618 288.46843062 500.68701281 280.00909829 500.67538887 C273.12980566 500.66632998 266.25055277 500.66514114 259.37125587 500.66948414 C258.38959047 500.67009707 257.40792506 500.67071 256.39651221 500.67134151 C254.40184918 500.6726205 252.40718616 500.67391735 250.41252315 500.67523187 C231.73874935 500.68661927 213.06505429 500.67355291 194.39129341 500.65203041 C178.39227543 500.63416111 162.39337357 500.63726574 146.39435768 500.65570545 C127.78426422 500.67714474 109.17423964 500.6855208 90.56413555 500.6732564 C88.5770925 500.67198229 86.59004944 500.67072481 84.60300636 500.66948414 C83.13677473 500.66855849 83.13677473 500.66855849 81.64092225 500.66761413 C74.77538177 500.6641704 67.90988525 500.66996844 61.04435158 500.67940235 C52.66968148 500.69065776 44.29516123 500.68750815 35.92050815 500.66627938 C31.65325033 500.65581642 27.38624171 500.65156523 23.11898613 500.66487598 C19.20313155 500.67690527 15.28775421 500.6700666 11.37194216 500.64896578 C9.96500444 500.64454384 8.55802533 500.64666505 7.15111482 500.65646893 C-5.57834154 500.73828039 -17.77656932 498.5027318 -29.13786888 492.50922108 C-29.79472679 492.1707616 -30.4515847 491.83230213 -31.1283474 491.48358631 C-53.58884875 479.48421471 -68.59064139 459.87955161 -76.28630638 435.75531483 C-77.57909213 431.09155548 -78.13932773 426.85423406 -78.14988327 422.0066843 C-78.15749508 420.14734402 -78.15749508 420.14734402 -78.16526067 418.25044131 C-78.16586229 416.87769655 -78.16636139 415.50495175 -78.16676903 414.13220692 C-78.17078576 412.6715773 -78.17522434 411.2109488 -78.18004858 409.75032163 C-78.191997 405.73547932 -78.19765855 401.72064902 -78.20222974 397.70579243 C-78.20819263 393.3755817 -78.21980097 389.04538528 -78.23052025 384.71518421 C-78.25503189 374.2551038 -78.26967133 363.79501867 -78.28258032 353.33491838 C-78.28629371 350.37868493 -78.29026684 347.42245194 -78.29433298 344.46621895 C-78.31957534 326.09563827 -78.34162147 307.72505682 -78.35406113 289.35446262 C-78.35699068 285.10005916 -78.35995236 280.84565573 -78.36296654 276.59125233 C-78.36371259 275.53388025 -78.36445864 274.47650818 -78.3652273 273.38709453 C-78.37786874 256.27548401 -78.41107588 239.16397768 -78.45276837 222.05241582 C-78.49525476 204.47031181 -78.51876405 186.88826104 -78.52398169 169.30610585 C-78.52738863 159.4401842 -78.53905872 149.57442525 -78.57208443 139.70855427 C-78.6001786 131.30222953 -78.61104344 122.89610086 -78.59988897 114.48973283 C-78.59472581 110.20602162 -78.59743496 105.92272037 -78.62235451 101.63906956 C-78.80435501 68.53994043 -78.80435501 68.53994043 -73.01286888 55.13422108 C-72.60300023 54.18385762 -72.60300023 54.18385762 -72.18485141 53.21429491 C-62.36952502 30.73466553 -45.2955953 14.84226296 -23.01286888 5.13422108 C-18.72359613 3.61251767 -14.41145163 2.29965753 -10.01286888 1.13422108 C-9.42032668 0.95700404 -8.82778449 0.77978699 -8.21728647 0.59719974 C-5.43844212 0.01357818 -2.84072709 0.00473811 0 0 Z " fill="#0B0B0C" transform="translate(78.01286888122559,-0.13422107696533203)"/>
<path d="M0 0 C5.27938757 2.97471317 10.1245315 6.27575353 14.6315918 10.34057617 C15.21811523 10.83557617 15.80463867 11.33057617 16.40893555 11.84057617 C30.84358838 24.93323181 40.45267967 47.95200514 45.6315918 66.34057617 C45.6315918 67.33057617 45.6315918 68.32057617 45.6315918 69.34057617 C46.86393555 69.0028418 48.0962793 68.66510742 49.3659668 68.31713867 C51.03776091 67.86631779 52.7096406 67.41581416 54.3815918 66.96557617 C55.18725586 66.74385742 55.99291992 66.52213867 56.82299805 66.29370117 C68.54505556 63.15551255 79.74381134 61.99010152 91.83129883 62.02490234 C94.12849043 62.02807189 96.42440104 62.00447673 98.72143555 61.97924805 C114.87774429 61.91030855 129.4607341 65.10252144 141.6315918 76.34057617 C150.21436826 85.28928496 152.18074817 94.31919129 152.11962891 106.39086914 C151.84711521 114.26692163 149.71625766 121.11843859 146.6315918 128.34057617 C146.35814941 129.00911621 146.08470703 129.67765625 145.80297852 130.36645508 C138.85400306 147.17849248 128.01877939 162.08778961 115.7097168 175.42260742 C113.82705606 177.4222163 113.82705606 177.4222163 111.6315918 180.34057617 C111.84196655 184.15848827 114.01025979 186.11131452 116.5690918 188.77807617 C139.6315918 213.7441476 139.6315918 213.7441476 139.6315918 223.34057617 C125.8949955 225.00919339 125.8949955 225.00919339 120.8815918 221.31323242 C118.56634131 218.43157245 116.59418626 215.47237585 114.6315918 212.34057617 C113.06446703 210.22431017 111.48121242 208.11988775 109.8815918 206.02807617 C109.14553711 205.03678711 108.40948242 204.04549805 107.65112305 203.02416992 C105.40410872 200.03829208 103.06930847 197.17147295 100.6315918 194.34057617 C96.28572752 194.80765504 94.29832918 197.40716869 91.3815918 200.46557617 C90.40792444 201.46452723 89.43265454 202.46191873 88.45581055 203.45776367 C87.97805176 203.94728516 87.50029297 204.43680664 87.00805664 204.94116211 C85.11037757 206.87048039 83.17892279 208.75097671 81.1940918 210.59057617 C80.59725586 211.15260742 80.00041992 211.71463867 79.38549805 212.29370117 C77.6315918 213.34057617 77.6315918 213.34057617 75.74853516 213.03198242 C73.62566445 212.33864027 71.93209642 211.4464552 70.0065918 210.32495117 C65.26048423 207.89025963 60.89341003 207.67948554 55.6315918 207.59057617 C54.76147461 207.56092773 53.89135742 207.5312793 52.99487305 207.50073242 C50.87425963 207.43082209 48.75292617 207.38334501 46.6315918 207.34057617 C46.6161306 206.34911842 46.6161306 206.34911842 46.60035706 205.33763123 C46.49196993 198.44292959 46.37739923 191.54835017 46.25927734 184.65380859 C46.21603153 182.08254561 46.17434935 179.51125581 46.13427734 176.93994141 C46.07632355 173.23876884 46.01270173 169.53772989 45.94799805 165.83666992 C45.92292931 164.1190873 45.92292931 164.1190873 45.89735413 162.36680603 C46.36664828 152.82817015 46.36664828 152.82817015 42.9519043 144.51123047 C42.22745117 144.06690674 41.50299805 143.62258301 40.7565918 143.16479492 C39.94536865 142.65231201 39.13414551 142.1398291 38.29833984 141.61181641 C37.41831299 141.08918213 36.53828613 140.56654785 35.6315918 140.02807617 C34.26997925 139.18515015 34.26997925 139.18515015 32.88085938 138.32519531 C30.14440689 136.64054357 27.39006341 134.98885061 24.6315918 133.34057617 C23.19721985 132.46163655 21.76355754 131.58153714 20.33081055 130.69995117 C12.19773057 125.7524177 3.83821431 121.20226074 -4.5559082 116.71557617 C-5.53664307 116.18182373 -6.51737793 115.64807129 -7.52783203 115.09814453 C-8.45877686 114.60838135 -9.38972168 114.11861816 -10.34887695 113.61401367 C-11.17282959 113.17492676 -11.99678223 112.73583984 -12.84570312 112.28344727 C-16.82033544 110.79791257 -19.94685765 110.77426407 -23.89453125 112.34692383 C-24.71477783 112.81146973 -25.53502441 113.27601563 -26.38012695 113.75463867 C-27.30374023 114.26897461 -28.22735352 114.78331055 -29.17895508 115.31323242 C-30.12834961 115.85850586 -31.07774414 116.4037793 -32.0559082 116.96557617 C-33.93481445 118.02026367 -35.8137207 119.07495117 -37.69262695 120.12963867 C-38.62631104 120.66024902 -39.55999512 121.19085938 -40.52197266 121.73754883 C-43.37850851 123.34626436 -46.25631437 124.90957268 -49.1418457 126.46557617 C-53.93215538 129.06994184 -58.50132941 131.87036591 -63.05664062 134.86743164 C-63.64678955 135.25560059 -64.23693848 135.64376953 -64.8449707 136.04370117 C-65.42666016 136.42719727 -66.00834961 136.81069336 -66.60766602 137.20581055 C-68.3476818 138.32721839 -70.11189699 139.39332427 -71.8918457 140.44995117 C-73.51993164 141.44768555 -73.51993164 141.44768555 -75.1809082 142.46557617 C-76.15672852 143.0456543 -77.13254883 143.62573242 -78.13793945 144.22338867 C-81.54291548 147.45543246 -81.29301493 151.26525702 -81.45594788 155.75024414 C-81.50069258 158.56092294 -81.50699463 161.3693933 -81.5012207 164.18041992 C-81.50265579 165.74005211 -81.50265579 165.74005211 -81.50411987 167.33119202 C-81.50479856 169.52906352 -81.50296602 171.72693706 -81.4987793 173.92480469 C-81.49347565 177.23596894 -81.4987095 180.5469945 -81.50512695 183.8581543 C-81.50979891 189.08531403 -81.46635823 194.3103844 -81.39434814 199.53701782 C-81.37055331 202.10873528 -81.39219575 204.67604239 -81.42260742 207.24755859 C-81.51973686 214.25531257 -81.51973686 214.25531257 -78.84057617 220.54296875 C-76.73532515 222.31724628 -74.69506272 223.52994302 -72.2434082 224.77807617 C-71.42445068 225.2550293 -70.60549316 225.73198242 -69.76171875 226.22338867 C-68.09719202 227.18793819 -66.41922923 228.12969508 -64.72827148 229.04711914 C-62.64899225 230.18678616 -60.64527097 231.38436098 -58.64575195 232.65698242 C-48.27855023 239.22878823 -37.27955772 244.69496264 -26.35522461 250.26831055 C-24.3684082 251.34057617 -24.3684082 251.34057617 -23.3684082 252.34057617 C-23.28155217 253.90230362 -23.26138601 255.46786961 -23.27075195 257.03198242 C-23.27397461 257.9762207 -23.27719727 258.92045898 -23.28051758 259.89331055 C-23.28889648 260.8865332 -23.29727539 261.87975586 -23.3059082 262.90307617 C-23.31041992 263.90016602 -23.31493164 264.89725586 -23.31958008 265.92456055 C-23.33140814 268.39662466 -23.34788971 270.86857135 -23.3684082 273.34057617 C-37.54880868 280.77020089 -51.63718326 286.94406169 -67.3684082 290.34057617 C-63.56069062 300.95476329 -59.36688064 311.22977088 -54.3684082 321.34057617 C-53.6278418 322.84104492 -53.6278418 322.84104492 -52.87231445 324.37182617 C-46.84107327 336.00934304 -38.14750503 347.10893468 -26.3684082 353.34057617 C-24.31057864 353.78621497 -24.31057864 353.78621497 -22.2434082 353.96557617 C-15.67410744 355.206321 -11.17556868 359.97369769 -6.3684082 364.34057617 C-7.3684082 367.34057617 -7.3684082 367.34057617 -9.48168945 368.50463867 C-17.52253998 370.8331123 -27.33140727 370.38103184 -34.91137695 366.78588867 C-49.53724521 358.18243676 -59.27690978 346.56974097 -67.43579102 331.99145508 C-68.2064525 330.6272632 -69.01329618 329.28358063 -69.8293457 327.94604492 C-75.62379762 318.29477627 -78.94035449 307.00563217 -82.3684082 296.34057617 C-89.22664975 297.68378016 -96.05494764 299.13676799 -102.8762207 300.65698242 C-111.22554058 302.29135712 -119.38596914 302.55725784 -127.87475586 302.58081055 C-129.96810534 302.59045954 -132.06044655 302.62153401 -134.15356445 302.65307617 C-151.85348046 302.79139856 -166.01350099 299.01569958 -179.13012695 286.68432617 C-186.09087351 279.25017871 -188.69059595 269.47465316 -188.52075195 259.45385742 C-188.24510056 255.63007783 -187.33939461 252.0403692 -186.3684082 248.34057617 C-186.12348633 247.31061523 -185.87856445 246.2806543 -185.6262207 245.21948242 C-180.57968247 225.54691522 -169.29867976 209.5821466 -156.5168457 194.10229492 C-156.0021875 193.47758301 -155.4875293 192.85287109 -154.95727539 192.20922852 C-153.86809593 190.92825439 -152.74676277 189.67413519 -151.59985352 188.44458008 C-151.04136719 187.8392041 -150.48288086 187.23382813 -149.9074707 186.61010742 C-149.39651855 186.07619385 -148.88556641 185.54228027 -148.35913086 184.9921875 C-147.15493834 183.36215568 -147.15493834 183.36215568 -147.59545898 181.27148438 C-148.71054078 178.48589311 -150.51729878 176.85057446 -152.6184082 174.71557617 C-170.64185072 155.63836371 -187.33394067 129.61695089 -188.8059082 102.77807617 C-188.24256447 90.17326017 -182.40699006 80.86930744 -173.4309082 72.52807617 C-160.56019669 61.07172856 -140.70083876 60.23679092 -124.40307617 61.10424805 C-109.50634176 62.26434772 -94.64405513 64.91182762 -80.3684082 69.34057617 C-80.25625977 68.33897461 -80.14411133 67.33737305 -80.02856445 66.30541992 C-79.45348752 62.31988672 -78.24747204 58.6520828 -76.8059082 54.90307617 C-76.54414795 54.21640869 -76.2823877 53.52974121 -76.01269531 52.82226562 C-67.1815033 30.2525225 -54.85415964 9.16657411 -32.3527832 -1.83520508 C-20.72784841 -6.66367209 -10.92255254 -5.82769606 0 0 Z " fill="#F9F9F9" transform="translate(266.368408203125,56.659423828125)"/>
<path d="M0 0 C0.89505753 -0.02897369 1.79011505 -0.05794739 2.71229553 -0.08779907 C6.83468306 -0.18525685 10.95689278 -0.25942441 15.08007812 -0.31347656 C17.25005532 -0.35005558 19.4198096 -0.40454429 21.58886719 -0.47753906 C39.61331766 -1.07509551 39.61331766 -1.07509551 44.94580078 2.18554688 C46.97789078 4.46154326 48.38400635 6.56187804 49.79077148 9.25634766 C52.69915172 13.11550458 55.38631287 16.1206365 59.79077148 18.25634766 C63.2354135 18.71972846 63.2354135 18.71972846 67.04370117 18.67285156 C68.11040291 18.6857296 68.11040291 18.6857296 69.19865417 18.6988678 C71.53675343 18.72385608 73.87442612 18.72829917 76.21264648 18.73291016 C77.83979586 18.7472234 79.46693312 18.762981 81.09405518 18.78012085 C85.36795657 18.82191751 89.64178277 18.84695559 93.91583252 18.86761475 C100.77111473 18.90347957 107.62621195 18.96427539 114.48130035 19.02610397 C116.87943979 19.04524488 119.27752954 19.0569361 121.67572021 19.0675354 C123.13562124 19.07774131 124.59552122 19.0880987 126.05541992 19.09863281 C127.97472321 19.10837631 127.97472321 19.10837631 129.93280029 19.11831665 C132.79077148 19.25634766 132.79077148 19.25634766 133.79077148 20.25634766 C133.90176206 22.76032836 133.94815838 25.23698918 133.9519043 27.74194336 C133.9568692 28.52570343 133.96183411 29.3094635 133.96694946 30.11697388 C133.98161045 32.72203434 133.98838017 35.32703388 133.99389648 37.93212891 C133.99964543 39.73715721 134.00540319 41.54218549 134.01116943 43.34721375 C134.02169113 47.13781012 134.02752589 50.92838521 134.03100586 54.71899414 C134.03648805 59.57824181 134.0605052 64.4372089 134.08897781 69.2963686 C134.10759621 73.02726564 134.1128094 76.75809507 134.11434174 80.48903465 C134.11737144 82.28041299 134.12541065 84.07179006 134.13852692 85.86312294 C134.15556826 88.36982187 134.15371184 90.87583512 134.1472168 93.38256836 C134.15643158 94.12402603 134.16564636 94.8654837 134.17514038 95.62940979 C134.14078331 99.85899497 133.81731974 102.24781406 130.79077148 105.25634766 C128.31607628 105.75133228 128.31607628 105.75133228 125.31161499 105.74409485 C124.17302536 105.75103867 123.03443573 105.75798248 121.86134338 105.76513672 C120.61135056 105.75232666 119.36135773 105.7395166 118.07348633 105.72631836 C116.75792252 105.72850876 115.4423587 105.73069916 114.08692932 105.73295593 C110.47744938 105.73838078 106.86848162 105.71895105 103.25909376 105.69485497 C99.48659812 105.67358743 95.7141049 105.67415501 91.94155884 105.67216492 C85.60800334 105.66571512 79.27464082 105.64445724 72.94116211 105.61303711 C64.80173182 105.57271193 56.66242722 105.55534548 48.52290916 105.54572773 C41.53554151 105.53743775 34.54820069 105.52019781 27.56085634 105.50069022 C25.30932378 105.49461573 23.05779021 105.48947697 20.80625534 105.48433876 C16.620548 105.47395335 12.43493527 105.45431273 8.24926758 105.43334961 C6.99522629 105.43066071 5.741185 105.4279718 4.44914246 105.42520142 C3.31619247 105.41804611 2.18324249 105.41089081 1.01596069 105.40351868 C0.02524252 105.3992452 -0.96547565 105.39497171 -1.98621559 105.39056873 C-4.20922852 105.25634766 -4.20922852 105.25634766 -5.20922852 104.25634766 C-5.30664919 102.91795293 -5.3355441 101.57447941 -5.33621216 100.23254395 C-5.33903198 99.36595657 -5.34185181 98.4993692 -5.34475708 97.60652161 C-5.34273285 96.64856186 -5.34070862 95.69060211 -5.33862305 94.70361328 C-5.34037537 93.70045578 -5.34212769 92.69729828 -5.34393311 91.66374207 C-5.34835368 88.33000994 -5.34541291 84.99633037 -5.34204102 81.66259766 C-5.342714 79.35713694 -5.34368397 77.05167629 -5.34494019 74.74621582 C-5.34641744 69.90730109 -5.34426172 65.06840478 -5.33959961 60.22949219 C-5.33390231 54.0114012 -5.33718117 47.79335338 -5.34317207 41.57526398 C-5.34677695 36.81251701 -5.34563944 32.04978035 -5.34304428 27.28703308 C-5.34237481 24.99358617 -5.34320414 22.70013834 -5.34552383 20.4066925 C-5.34804915 17.20746359 -5.34421146 14.00830563 -5.33862305 10.80908203 C-5.34064728 9.85112228 -5.34267151 8.89316254 -5.34475708 7.90617371 C-5.34193726 7.03958633 -5.33911743 6.17299896 -5.33621216 5.28015137 C-5.33583513 4.52281456 -5.33545811 3.76547775 -5.33506966 2.98519135 C-5.08429326 -0.46005075 -2.96784279 0.09353934 0 0 Z " fill="#0C0C0C" transform="translate(280.209228515625,292.74365234375)"/>
<path d="M0 0 C1.0349762 -0.01606293 2.06995239 -0.03212585 3.1362915 -0.04867554 C7.86217434 -0.09333837 12.58792014 -0.13418484 17.31396484 -0.15722656 C19.80266677 -0.17378112 22.29132126 -0.20106415 24.77978516 -0.23925781 C28.37785376 -0.29415736 31.97481057 -0.3159213 35.57324219 -0.33056641 C36.67871399 -0.35323578 37.78418579 -0.37590515 38.92315674 -0.39926147 C45.74564358 -0.38070036 50.84439133 0.22940442 55.80761719 5.19287109 C57.15802197 7.26283283 58.49351038 9.34256771 59.81762695 11.42944336 C62.4694661 15.11825653 63.85204042 16.89753176 68.22946167 18.25045776 C72.41902029 18.59408535 76.45437373 18.56994477 80.64746094 18.40771484 C82.18002111 18.39504509 83.71264221 18.38844643 85.24525452 18.3875885 C89.26279588 18.3725121 93.27586588 18.29031847 97.29205322 18.18896484 C103.71276042 18.03560019 110.13428118 17.97385911 116.55655098 17.93356514 C118.78334713 17.90830044 121.00697356 17.84742301 123.2328949 17.78172302 C131.19639032 17.62091635 138.45051061 17.87889542 144.80761719 23.19287109 C149.55017234 28.20010074 150.53974777 32.35899583 150.45458984 39.12231445 C150.46335144 39.98830765 150.47211304 40.85430084 150.48114014 41.74653625 C150.50304073 44.59244777 150.48861362 47.43678915 150.47167969 50.28271484 C150.47505082 52.2713704 150.47990591 54.26002395 150.48617554 56.24867249 C150.49353448 60.41052932 150.48287393 64.57184842 150.45947266 68.73364258 C150.43100425 74.05449013 150.44738306 79.37407552 150.47733498 84.69487667 C150.49545019 88.80002761 150.48963023 92.90488205 150.47669601 97.01004219 C150.47337271 98.9711478 150.47741103 100.93228079 150.48909378 102.89335442 C150.50187017 105.6409666 150.48233089 108.38656971 150.45458984 111.1340332 C150.464711 111.93584015 150.47483215 112.73764709 150.48526001 113.56375122 C150.34710486 120.99279753 147.07504038 125.58533442 142.30761719 131.06787109 C138.06066813 134.67777779 134.36774381 135.44225191 128.86930847 135.46702576 C127.67918655 135.47700089 126.48906464 135.48697601 125.26287842 135.49725342 C123.96561829 135.49791809 122.66835815 135.49858276 121.33178711 135.49926758 C119.94502824 135.50689324 118.55827358 135.51532144 117.17152405 135.52449036 C113.41106411 135.5464026 109.65068547 135.55522986 105.89016891 135.5603168 C103.53840091 135.56396436 101.18665409 135.57020649 98.83489418 135.57731819 C90.62356255 135.60180165 82.41229399 135.61486212 74.20092773 135.6184082 C66.55786675 135.62204228 58.91520762 135.65193105 51.27226943 135.69381279 C44.7013834 135.72855212 38.13063031 135.74395727 31.5596531 135.74465424 C27.63908461 135.74544584 23.71892564 135.75413009 19.79845238 135.7826519 C16.10874175 135.80889547 12.41977835 135.81100358 8.73001671 135.79499626 C6.73961046 135.79232748 4.74921834 135.81432268 2.75894165 135.83718872 C-4.35931335 135.77920343 -10.00853561 135.45564833 -15.19238281 130.19287109 C-20.1294431 124.02832985 -20.92104054 118.19143117 -20.83935547 110.49169922 C-20.84811707 109.46120956 -20.85687866 108.43071991 -20.86590576 107.3690033 C-20.88778352 103.98693846 -20.87338739 100.60619756 -20.85644531 97.22412109 C-20.85981676 94.85957592 -20.86467211 92.49503243 -20.87094116 90.13049316 C-20.8782968 85.18448319 -20.86764854 80.23892593 -20.84423828 75.29296875 C-20.81575215 68.96792816 -20.83216303 62.64394854 -20.8621006 56.31894684 C-20.8802085 51.4391487 -20.87439936 46.55960016 -20.86146164 41.67979431 C-20.85813732 39.34830091 -20.86218022 37.01678451 -20.87385941 34.68531799 C-20.88662501 31.4209531 -20.86710922 28.15828238 -20.83935547 24.89404297 C-20.84947662 23.94001083 -20.85959778 22.9859787 -20.87002563 22.0030365 C-20.76624922 15.3809521 -19.17833965 10.53630562 -15.19238281 5.19287109 C-10.20373099 1.12050226 -6.29787824 0.08914792 0 0 Z M-4.19238281 16.19287109 C-4.28980349 17.53126582 -4.3186984 18.87473934 -4.31936646 20.2166748 C-4.32218628 21.08326218 -4.3250061 21.94984955 -4.32791138 22.84269714 C-4.32588715 23.80065689 -4.32386292 24.75861664 -4.32177734 25.74560547 C-4.32352966 26.74876297 -4.32528198 27.75192047 -4.3270874 28.78547668 C-4.33150798 32.11920881 -4.3285672 35.45288838 -4.32519531 38.78662109 C-4.32586829 41.09208181 -4.32683827 43.39754246 -4.32809448 45.70300293 C-4.32957173 50.54191766 -4.32741602 55.38081397 -4.32275391 60.21972656 C-4.31705661 66.43781755 -4.32033547 72.65586537 -4.32632637 78.87395477 C-4.32993125 83.63670174 -4.32879374 88.3994384 -4.32619858 93.16218567 C-4.3255291 95.45563258 -4.32635843 97.74908041 -4.32867813 100.04252625 C-4.33120345 103.24175516 -4.32736576 106.44091312 -4.32177734 109.64013672 C-4.32380157 110.59809647 -4.32582581 111.55605621 -4.32791138 112.54304504 C-4.32509155 113.40963242 -4.32227173 114.27621979 -4.31936646 115.16906738 C-4.31898943 115.92640419 -4.3186124 116.683741 -4.31822395 117.4640274 C-4.37955673 119.2236662 -4.37955673 119.2236662 -3.19238281 120.19287109 C-1.45312969 120.29788372 0.29040214 120.33252622 2.0328064 120.34004211 C3.16575638 120.34719742 4.29870636 120.35435272 5.46598816 120.36172485 C6.72002945 120.36441376 7.97407074 120.36710266 9.26611328 120.36987305 C10.57817245 120.37644424 11.89023163 120.38301544 13.24205017 120.38978577 C16.85157527 120.40722012 20.4610871 120.41775396 24.0706439 120.4259913 C26.32384823 120.43113589 28.57704839 120.43721183 30.83024979 120.44350243 C37.87446644 120.46256059 44.91867256 120.47679084 51.96291006 120.4851144 C60.10470553 120.49489266 68.24622954 120.52122465 76.38792932 120.56161529 C82.67414631 120.59173493 88.96028531 120.60657927 95.24657309 120.60989541 C99.00435194 120.61225054 102.761841 120.62127038 106.51954269 120.64635658 C110.70998083 120.67387909 114.89980941 120.66981897 119.09033203 120.6628418 C120.34032486 120.67565186 121.59031769 120.68846191 122.87818909 120.70166016 C124.01677872 120.69471634 125.15536835 120.68777252 126.32846069 120.68061829 C127.81566903 120.68420082 127.81566903 120.68420082 129.33292198 120.68785572 C131.92858439 120.40554143 131.92858439 120.40554143 133.62709618 118.38422203 C135.38472245 115.12161514 135.20895854 111.93160348 135.1640625 108.3190918 C135.16712906 107.13556625 135.16712906 107.13556625 135.17025757 105.9281311 C135.17326159 103.32473447 135.15480389 100.7219735 135.13574219 98.11865234 C135.1326845 96.31072649 135.13080845 94.50279828 135.13006592 92.69487 C135.12546565 88.90952515 135.11104734 85.12439338 135.08886719 81.33911133 C135.06052438 76.47638316 135.04964938 71.6138224 135.04518509 66.75101948 C135.04103832 63.02024141 135.03122808 59.28949749 135.01931 55.5587368 C135.01359669 53.76489728 135.00884151 51.97105445 135.00504303 50.17720985 C134.99820378 47.67756941 134.98458426 45.17806437 134.96875 42.6784668 C134.96707321 41.55717125 134.96707321 41.55717125 134.96536255 40.41322327 C135.23757229 37.01544228 135.23757229 37.01544228 133.80761719 34.19287109 C131.57998693 34.10036509 129.34941871 34.07828357 127.11987305 34.08276367 C125.66975401 34.0822207 124.21963499 34.08163368 122.76951599 34.08100891 C121.99652098 34.08243708 121.22352596 34.08386524 120.42710686 34.08533669 C116.33838154 34.08884902 112.24979503 34.06304924 108.16113281 34.04248047 C102.95569448 34.01818531 97.75065296 34.00238662 92.54516602 34.01782227 C88.34205737 34.02952133 84.13993758 34.01198114 79.93698311 33.97537804 C78.33874193 33.96678905 76.74040549 33.96880257 75.14219475 33.9818821 C60.02476308 34.09627095 60.02476308 34.09627095 54.23510742 28.76708984 C53.76403564 28.24759766 53.29296387 27.72810547 52.80761719 27.19287109 C52.34105713 26.69916016 51.87449707 26.20544922 51.39379883 25.69677734 C50.15856362 24.30971646 49.0109741 22.84604139 47.87011719 21.38037109 C47.11859375 20.42517578 46.36707031 19.46998047 45.59277344 18.48583984 C45.00367188 17.72916016 44.41457031 16.97248047 43.80761719 16.19287109 C42.23461391 14.61986782 40.67077674 15.06561605 38.48730469 15.06347656 C37.56965332 15.0603244 36.65200195 15.05717224 35.70654297 15.05392456 C34.20969971 15.05696091 34.20969971 15.05696091 32.68261719 15.06005859 C31.15677002 15.0586235 31.15677002 15.0586235 29.60009766 15.05715942 C27.44466083 15.05647748 25.28922197 15.05833274 23.13378906 15.0625 C19.82189348 15.06784804 16.51013352 15.06255547 13.19824219 15.05615234 C11.10970022 15.05681312 9.02115834 15.05809428 6.93261719 15.06005859 C5.93472168 15.05803436 4.93682617 15.05601013 3.90869141 15.05392456 C2.99104004 15.05707672 2.07338867 15.06022888 1.12792969 15.06347656 C0.31598145 15.06427216 -0.4959668 15.06506775 -1.33251953 15.06588745 C-3.20784034 14.9892292 -3.20784034 14.9892292 -4.19238281 16.19287109 Z " fill="#F9F9F9" transform="translate(279.1923828125,277.80712890625)"/>
<path d="M0 0 C1.00839935 0.00631439 1.00839935 0.00631439 2.03717041 0.01275635 C12.91117417 0.09229788 23.27449711 1.22685951 33.81933594 3.95996094 C37.50397998 4.89938379 41.22246608 5.69077391 44.9375 6.5 C44.47688532 12.96884346 43.4081419 18.96581061 41.76171875 25.23828125 C39.33545649 34.83984044 37.67967918 44.55609402 36.46484375 54.37890625 C35.37642197 60.82075068 34.12250661 63.86315154 28.83325195 67.63452148 C28.14577881 68.10575439 27.45830566 68.5769873 26.75 69.0625 C20.85401664 73.28523538 15.21086043 77.66310076 9.75 82.4375 C8.83408081 83.23426147 8.83408081 83.23426147 7.8996582 84.04711914 C4.44814304 87.08093807 1.15032345 90.21457037 -2.0625 93.5 C-18.00133026 86.92840939 -30.5825705 61.2990099 -36.88671875 46.234375 C-40.70515813 36.59046485 -43.83239687 26.28525248 -39.625 16.1875 C-34.60378995 7.94085989 -27.79267066 3.91671609 -18.71704102 1.29394531 C-12.47709526 -0.06167655 -6.36288697 -0.08977478 0 0 Z " fill="#0D0D0D" transform="translate(135.0625,133.5)"/>
<path d="M0 0 C3.90314105 1.57941056 6.24162137 4.10711974 9.125 7.125 C14.09039278 12.22204776 19.35714661 16.65934355 25 21 C26.79420605 22.43432923 28.58590826 23.87179655 30.375 25.3125 C33.6409262 27.94591824 33.6409262 27.94591824 37.0847168 30.33227539 C39.45267892 32.39416822 39.58634051 33.36494315 39.87109375 36.4453125 C39.96793457 37.34572266 40.06477539 38.24613281 40.16455078 39.17382812 C40.25462402 40.14771484 40.34469727 41.12160156 40.4375 42.125 C41.533987 52.10351055 43.22985405 61.83767632 45.28686523 71.66064453 C46.35567549 76.76547203 47.3458108 81.82463655 48 87 C40.27566122 90.37939822 32.25109265 91.55671087 24 93 C23.22479004 93.17345947 22.44958008 93.34691895 21.65087891 93.52563477 C6.21146898 96.28846157 -14.00273334 96.17321827 -27.5 87.375 C-32.52792576 83.04058124 -36.24424307 77.82771858 -37.54296875 71.25 C-38.83994055 45.45077723 -19.0738513 21.10648474 -3 3 C-2.01281895 1.98734331 -1.0199939 0.9795981 0 0 Z " fill="#0E0E0E" transform="translate(131,250)"/>
<path d="M0 0 C1.21107422 -0.01224609 2.42214844 -0.02449219 3.66992188 -0.03710938 C15.33329545 -0.05605367 27.25775967 0.85290536 36.2109375 9.1875 C42.22441635 15.86368876 42.65142686 21.78695004 42.46875 30.5 C42.03712382 37.98563126 39.17074117 44.45929503 36.0625 51.1875 C35.78986328 51.80254395 35.51722656 52.41758789 35.23632812 53.05126953 C31.24934309 61.99808307 26.2041024 69.58995847 20.0625 77.1875 C18.85787109 78.69763672 18.85787109 78.69763672 17.62890625 80.23828125 C15.46888857 82.91613569 13.30608631 85.57927729 11.0625 88.1875 C10.39863281 88.97125 9.73476563 89.755 9.05078125 90.5625 C7.0625 92.1875 7.0625 92.1875 5.1171875 92.2109375 C2.32608593 90.82069299 0.43384651 88.9769129 -1.8125 86.8125 C-6.0304893 82.84441212 -10.37962534 79.13482082 -14.9375 75.5625 C-15.8195813 74.85589233 -15.8195813 74.85589233 -16.71948242 74.13500977 C-19.47364367 71.96019175 -22.07682773 70.11118142 -25.16796875 68.41796875 C-28.87775993 66.32539169 -32.09607432 64.50981047 -33.61083984 60.32910156 C-34.76031452 55.37036087 -35.13131668 50.32015225 -35.59228516 45.26074219 C-36.2444803 39.45463721 -37.40285701 33.73556327 -38.5 28 C-38.81590088 26.29976685 -38.81590088 26.29976685 -39.13818359 24.56518555 C-40.28826294 18.40938811 -41.53877953 12.2915935 -42.9375 6.1875 C-39.79423222 5.36485674 -36.64749379 4.55630928 -33.5 3.75 C-32.62150391 3.51990234 -31.74300781 3.28980469 -30.83789062 3.05273438 C-20.49220882 0.41859399 -10.66149777 0.00565597 0 0 Z " fill="#0D0D0D" transform="translate(359.9375,133.8125)"/>
<path d="M0 0 C16.02482874 9.01396616 25.0509278 26.16217893 31.875 42.625 C32.60396484 44.36716797 32.60396484 44.36716797 33.34765625 46.14453125 C37.00357249 55.21812839 37.00357249 55.21812839 36.875 60.625 C36.12629639 60.88079834 35.37759277 61.13659668 34.60620117 61.40014648 C31.08764676 62.60964114 27.57360278 63.83157795 24.0625 65.0625 C23.42851288 65.28443024 22.79452576 65.50636047 22.1413269 65.73501587 C13.02629285 68.94401028 4.21098447 72.5012524 -4.34887695 77.01928711 C-9.43961309 79.63249642 -9.43961309 79.63249642 -12.625 79.59765625 C-16.23527055 78.19303536 -19.70916262 76.57787536 -23.1875 74.875 C-33.30702309 70.02495546 -43.31330713 65.69214691 -54.125 62.625 C-56.12842734 61.96870484 -58.13031118 61.30739354 -60.125 60.625 C-57.60029631 41.53011465 -44.28352049 16.44420842 -29.36328125 4.28125 C-28.62464844 3.7346875 -27.88601562 3.188125 -27.125 2.625 C-26.41730469 2.0990625 -25.70960938 1.573125 -24.98046875 1.03125 C-16.92515184 -4.19382043 -8.60687083 -3.87806375 0 0 Z " fill="#0E0E0E" transform="translate(260.125,70.375)"/>
<path d="M0 0 C5.85103126 5.1352136 9.60717734 10.65439933 10.3125 18.45703125 C10.62735898 28.32589232 9.56903771 35.34383062 2.875 42.75 C-4.4560756 49.39911508 -11.60505858 51.93556082 -21.52734375 51.546875 C-29.56373491 50.28130159 -35.94862798 46.08396367 -40.85546875 39.6640625 C-46.35934514 31.66183949 -46.89041869 24.67937494 -46 15 C-43.59995576 6.43008594 -37.58126294 0.34200623 -30.0625 -4.16015625 C-19.63024552 -8.8329369 -9.09831594 -6.19263989 0 0 Z " fill="#F8F8F8" transform="translate(266,216)"/>
<path d="M0 0 C5.76303063 24.77626887 5.76303063 24.77626887 6 36 C2.62885137 34.71848007 -0.46768696 33.26335872 -3.58984375 31.4609375 C-4.4506958 30.96625977 -5.31154785 30.47158203 -6.19848633 29.96191406 C-7.10236084 29.43823242 -8.00623535 28.91455078 -8.9375 28.375 C-10.81509801 27.29426013 -12.6927022 26.213531 -14.5703125 25.1328125 C-15.48973633 24.60204102 -16.40916016 24.07126953 -17.35644531 23.52441406 C-21.00226108 21.42204302 -24.65684721 19.33520182 -28.3125 17.25 C-30.20833333 16.16666667 -32.10416667 15.08333333 -34 14 C-34 13.01 -34 12.02 -34 11 C-27.68879286 8.08389276 -21.30893629 5.55155445 -14.75 3.25 C-13.87859375 2.93417969 -13.0071875 2.61835938 -12.109375 2.29296875 C-11.26375 1.99519531 -10.418125 1.69742188 -9.546875 1.390625 C-8.79245117 1.12282227 -8.03802734 0.85501953 -7.26074219 0.57910156 C-4.76365681 -0.06054061 -2.5672879 -0.10070014 0 0 Z " fill="#131313" transform="translate(303,146)"/>
<path d="M0 0 C4.81236797 1.62908955 8.69240816 4.31888528 12.875 7.125 C19.67217588 11.61308742 26.58759446 15.6208038 33.828125 19.34375 C36.62201295 20.80262745 39.31803862 22.3464599 42 24 C38.34073849 27.15023038 34.24084299 28.72895148 29.8125 30.5 C29.05163086 30.80752197 28.29076172 31.11504395 27.50683594 31.43188477 C13.16756567 37.18077348 13.16756567 37.18077348 7 37 C4.43426106 29.01625396 2.53934811 21.15116721 1.25 12.875 C1.12262451 12.05797607 0.99524902 11.24095215 0.86401367 10.39916992 C0.33655318 6.84962325 0 3.60874847 0 0 Z " fill="#111111" transform="translate(187,295)"/>
<path d="M0 0 C7.52359023 2.11552149 14.78792191 4.71309657 22.0625 7.5625 C23.10599609 7.96146484 24.14949219 8.36042969 25.22460938 8.77148438 C26.70864258 9.3505957 26.70864258 9.3505957 28.22265625 9.94140625 C29.56469116 10.46263062 29.56469116 10.46263062 30.93383789 10.99438477 C33 12 33 12 34 14 C27.4195619 17.8353441 20.87166594 21.64095756 14 24.9375 C8.55668663 27.58579667 3.55999975 30.7362455 -1.45703125 34.10522461 C-5.80323471 37 -5.80323471 37 -8 37 C-7.81964555 29.08080022 -6.39216445 21.68247774 -4.5625 14 C-4.34505127 13.08001221 -4.12760254 12.16002441 -3.90356445 11.2121582 C-2.92247449 7.21074167 -1.95958028 3.64611706 0 0 Z " fill="#111111" transform="translate(196,145)"/>
<path d="M0 0 C4.66393727 1.86557491 7.63359805 3.95469001 11.3125 7.1875 C11.8799292 7.67710205 12.4473584 8.1667041 13.03198242 8.67114258 C14.6937509 10.10762654 16.3476724 11.55267582 18 13 C18.86625 13.7528125 19.7325 14.505625 20.625 15.28125 C22.42254808 16.84768475 24.21468995 18.41965001 26 20 C24.6561787 23.02637272 23.2013226 25.00549983 20.76953125 27.2421875 C19.81143555 28.12970703 19.81143555 28.12970703 18.83398438 29.03515625 C18.16689453 29.64230469 17.49980469 30.24945313 16.8125 30.875 C16.16474609 31.47441406 15.51699219 32.07382813 14.84960938 32.69140625 C12.91248868 34.47564729 10.96070109 36.24172246 9 38 C8.34692871 38.58813477 7.69385742 39.17626953 7.02099609 39.78222656 C6.39918457 40.33104492 5.77737305 40.87986328 5.13671875 41.4453125 C4.58072998 41.93789551 4.02474121 42.43047852 3.4519043 42.93798828 C2 44 2 44 0 44 C0 29.48 0 14.96 0 0 Z " fill="#0F0F10" transform="translate(329,217)"/>
<path d="M0 0 C0.66 0 1.32 0 2 0 C2 14.52 2 29.04 2 44 C-2.18691449 41.20872367 -5.50916316 38.78696642 -9.125 35.4375 C-11.4636588 33.27733696 -13.71676977 31.20306168 -16.3046875 29.34765625 C-16.86414063 28.90292969 -17.42359375 28.45820313 -18 28 C-18 27.34 -18 26.68 -18 26 C-18.639375 25.7525 -19.27875 25.505 -19.9375 25.25 C-22 24 -22 24 -22.8203125 22.14453125 C-23 20 -23 20 -21.83984375 18.24609375 C-16.15357451 12.84005133 -10.09358706 8.00088886 -3.87890625 3.22265625 C-1.8684836 1.69201173 -1.8684836 1.69201173 0 0 Z " fill="#131313" transform="translate(166,217)"/>
<path d="M0 0 C4.0366794 1.44461942 6.47601905 3.27952619 9 6.75 C10.26222658 10.85223639 10.24247633 13.90067335 9 18 C7.20612128 20.94708647 5.71873562 22.54822332 2.8125 24.375 C-1.3553458 25.30118795 -4.91352692 25.32631144 -9 24 C-12.48278614 21.60469606 -14.51220075 18.88482975 -15.57421875 14.78125 C-15.9268096 10.20540437 -15.06251661 7.53080815 -12.125 4 C-8.26320463 -0.02969952 -5.6370841 -0.46205607 0 0 Z " fill="#101010" transform="translate(251,226)"/>
<path d="M0 0 C1.98 0.99 1.98 0.99 4 2 C3.01 2.33 2.02 2.66 1 3 C1.33 16.53 1.66 30.06 2 44 C1.34 44 0.68 44 0 44 C0 29.48 0 14.96 0 0 Z " fill="#3F3F3F" transform="translate(329,217)"/>
<path d="M0 0 C1.98 0.99 1.98 0.99 4 2 C3.01 2.33 2.02 2.66 1 3 C1 6.3 1 9.6 1 13 C0.67 13 0.34 13 0 13 C0 8.71 0 4.42 0 0 Z " fill="#2E2E2E" transform="translate(329,217)"/>
<path d="M0 0 C0.66 0.33 1.32 0.66 2 1 C-0.31 3.31 -2.62 5.62 -5 8 C-5.33 7.34 -5.66 6.68 -6 6 C-4 4 -2 2 0 0 Z " fill="#DADADA" transform="translate(268,280)"/>
</svg>
